<?xml version="1.0" encoding="utf-8"?>
<!-- Generator: Adobe Illustrator 21.1.0, SVG Export Plug-In . SVG Version: 6.00 Build 0)  -->
<svg version="1.1" id="Layer_1" xmlns="http://www.w3.org/2000/svg" xmlns:xlink="http://www.w3.org/1999/xlink" x="0px" y="0px"
	 width="78.2px" height="57.5px" viewBox="0 0 78.2 57.5" style="enable-background:new 0 0 78.2 57.5;" xml:space="preserve">
<style type="text/css">
	.st0{fill:#F7D227;}
</style>
<g id="icon:2_1_">
	<path class="st0" d="M77.2,5.7c-0.5-1.2-1.3-2.3-2.2-3.2c-1-1-1.4-1.2-3.7-2.4c-1.8-0.9-43.1,4-44.4,4c-0.2,0-0.4,0-0.6,0
		c-6.2,0.3-11.1,5.4-11.1,11.7v24.4C12.9,41,10,42.1,7.2,43c-6.4,2.2-10.8,7.6-3.1,12.6c3.1,2,7.1,2.2,11.7,1.3
		c5.9-2.1,22.9-8.6,22.9-8.6l9.5-3.1v7.9l3.4,1.8l6.6-3.1v-9.9l20-6.4V10C78.2,8.5,77.8,7,77.2,5.7z M36.3,47.1l-18.7-7.7V15.8
		c0-5,3.9-9.1,8.9-9.4c0.1,0,0.3,0,0.4,0c2.5,0,4.8,1,6.6,2.8c1.8,1.8,2.8,4.1,2.8,6.6V47.1z"/>
</g>
</svg>
