<?xml version="1.0" encoding="utf-8"?>
<!-- Generator: Adobe Illustrator 21.1.0, SVG Export Plug-In . SVG Version: 6.00 Build 0)  -->
<svg version="1.1" id="Layer_1" xmlns="http://www.w3.org/2000/svg" xmlns:xlink="http://www.w3.org/1999/xlink" x="0px" y="0px"
	 width="66.5px" height="48.3px" viewBox="0 0 66.5 48.3" style="enable-background:new 0 0 66.5 48.3;" xml:space="preserve">
<style type="text/css">
	.st0{fill:#F7D227;}
</style>
<g id="icon:3_1_">
	<path class="st0" d="M45.7,19.1v-7h-6.1v7.5H27.8v-7.5h-6.1v6.9l-15,17.6h52.8L45.7,19.1z M33.3,33.1c-4.8,0-8.6-2.2-8.6-4.9
		c0-2.7,3.9-4.9,8.6-4.9s8.6,2.2,8.6,4.9C42,30.9,38.1,33.1,33.3,33.1z M60.7,39.1v9.2H5.6v-9.2H60.7z M19.5,13H0V6.7
		C0,4.7,12.2,0,33.2,0s33.2,4.7,33.2,6.7V13H47.9v-1.2c0-1.4-1.1-2.5-2.5-2.5c0,0-4.5-1-12.3-1S22,9.2,22,9.2
		c-1.4,0-2.5,1.1-2.5,2.5V13z M19.5,17.8H0v-3.7h19.5V17.8z M66.5,18H47.9v-3.7h18.6V18z"/>
</g>
</svg>
