<?xml version="1.0" encoding="utf-8"?>
<!-- Generator: Adobe Illustrator 21.1.0, SVG Export Plug-In . SVG Version: 6.00 Build 0)  -->
<svg version="1.1" id="Layer_1" xmlns="http://www.w3.org/2000/svg" xmlns:xlink="http://www.w3.org/1999/xlink" x="0px" y="0px"
	 width="40.4px" height="64.5px" viewBox="0 0 40.4 64.5" style="enable-background:new 0 0 40.4 64.5;" xml:space="preserve">
<style type="text/css">
	.st0{fill-rule:evenodd;clip-rule:evenodd;fill:#404041;}
</style>
<path class="st0" d="M4.9,0.3c0,0.1,0.2,0.2,0.3,0.3C5,0.7,4.8,0.9,4.6,1C4.5,1.2,4.3,1.4,4.1,1.6c0.2,0.2,0.4,0.3,0.5,0.5
	C4.6,2.2,4.5,2.3,4.4,2.4C4.3,2.4,4.2,2.5,4.2,2.6c0,0.1-0.2,0.2-0.3,0.3c0,0.1,0.3,0.2,0.3,0.3c0,0.1-0.2,0.2-0.3,0.3
	c0,0.1-0.3,0.2-0.3,0.3c0,0,0.3,0.2,0.3,0.3c0,0.1-0.2,0.2-0.3,0.3C3.5,4.4,3.3,4.5,3.2,4.7c-0.3,0.4-0.7,0.7-1,1.1
	C2.2,5.8,2.3,5.9,2.4,6c0.1,0.1,0.2,0.2,0.3,0.3c0,0-0.2,0.2-0.3,0.3c0,0.1,0.3,0.2,0.3,0.3c0,0.1-0.2,0.2-0.3,0.3
	C2.3,7.2,2.2,7.2,2.2,7.3c0,0.1-0.2,0.2-0.3,0.3c0,0,0.2,0.2,0.3,0.3C2.3,7.9,2.3,8,2.4,8.1C2.5,8,2.6,7.9,2.7,7.8
	c0,0,0.2-0.3,0.3-0.3c0.1,0,0.2,0.2,0.3,0.3C3.1,7.9,3,8,3,8.1c0,0-0.2,0.3-0.3,0.3c-0.1,0-0.2-0.2-0.3-0.3C2.4,8.2,2.3,8.3,2.2,8.4
	c0,0-0.3,0.2-0.3,0.3c0,0.1,0.2,0.2,0.3,0.3C1.9,9.1,1.7,9.4,1.4,9.7C1.3,9.8,1.3,9.8,1.2,9.9c-0.1,0.1-0.2,0.2-0.3,0.3
	c0,0.1,0.3,0.2,0.3,0.3c-0.1,0.1-0.2,0.2-0.3,0.3c0,0-0.3,0.2-0.3,0.3c0,0,0.2,0.2,0.3,0.3c0.1,0.1,0.2,0.2,0.3,0.3
	C1.1,11.6,1,11.7,1,11.7c-0.1,0.1-0.2,0.2-0.3,0.3c0,0.1-0.3,0.2-0.3,0.3c0,0.1,0.2,0.2,0.3,0.3c-0.1,0.1-0.2,0.2-0.3,0.3
	c0,0-0.3,0.2-0.3,0.3c0,0.1,0.2,0.2,0.3,0.3c0,0.1-0.3,0.2-0.3,0.3c0,0.1,0.2,0.2,0.3,0.3c0,0.1,0.3,0.2,0.3,0.3
	c0,0.1-0.3,0.2-0.3,0.3c0,0.1,0.3,0.2,0.3,0.3c0,0.1-0.2,0.2-0.3,0.3c0,0.1-0.3,0.2-0.3,0.3c0,0.1,0.3,0.2,0.3,0.3
	c0,0.1,0.2,0.2,0.3,0.3c-0.1,0.1-0.2,0.2-0.3,0.3c-0.1,0.1-0.2,0.2-0.3,0.3c0,0.1-0.2,0.2-0.3,0.3c0,0.1,0.3,0.2,0.3,0.3
	C0.3,16.8,0,16.9,0,17c0,0.1,0.2,0.2,0.3,0.3c0,0.1-0.3,0.2-0.3,0.3c0,0.1,0.3,0.2,0.3,0.3c0,0.1,0.3,0.2,0.3,0.3
	c0,0-0.2,0.2-0.3,0.3c-0.1,0.1-0.2,0.2-0.3,0.3c0.1,0.1,0.2,0.2,0.3,0.3c0.1,0.1,0.2,0.2,0.3,0.3c0.1,0.1,0.2,0.2,0.3,0.3
	c0,0-0.3,0.2-0.3,0.3c0,0.1,0.2,0.2,0.3,0.3c0,0.1-0.3,0.2-0.3,0.3c0,0.1,0.3,0.2,0.3,0.3c0,0.1-0.2,0.2-0.3,0.3
	c-0.1,0.1-0.2,0.2-0.3,0.3c0,0.1-0.2,0.2-0.3,0.3c0,0,0.2,0.2,0.3,0.3c0,0,0.3,0.2,0.3,0.3c0,0-0.2,0.2-0.3,0.3c0,0-0.3,0.2-0.3,0.3
	c0,0.1,0.2,0.2,0.3,0.3c0,0.1-0.3,0.2-0.3,0.3c0,0.1,0.2,0.2,0.3,0.3c0.1,0.1,0.2,0.2,0.3,0.3c0.1,0.1,0.2,0.2,0.3,0.3
	c0,0-0.2,0.2-0.3,0.3c0,0,0.2,0.2,0.3,0.3C1,24,1.1,24.1,1.2,24.2c0.1,0.1,0.2,0.2,0.3,0.3c-0.1,0.1-0.2,0.2-0.3,0.3
	c0,0-0.3,0.2-0.3,0.3c0,0.1,0.3,0.2,0.3,0.3c0,0.1,0.2,0.2,0.3,0.3c0,0.1-0.3,0.2-0.3,0.3c0,0.1,0.2,0.2,0.3,0.3
	c0.1,0.1,0.2,0.2,0.3,0.3c-0.1,0.1-0.2,0.2-0.3,0.3c0,0-0.3,0.2-0.3,0.3c0,0.1,0.2,0.2,0.3,0.3c0,0.1-0.2,0.2-0.3,0.3
	c0,0,0.2,0.2,0.3,0.3c0,0,0.3,0.2,0.3,0.3c0,0.1-0.3,0.2-0.3,0.3c0,0.1,0.3,0.2,0.3,0.3c0,0.1-0.2,0.2-0.3,0.3
	c-0.1,0.1-0.2,0.2-0.3,0.3c0.1,0.1,0.2,0.2,0.3,0.3c0.1,0.1,0.2,0.2,0.3,0.3c0,0.1,0.3,0.2,0.3,0.3c0,0.1-0.3,0.2-0.3,0.3
	c0,0.1,0.3,0.2,0.3,0.3c0,0.1-0.3,0.2-0.3,0.3c0,0.1,0.2,0.2,0.3,0.3c0.1,0.1,0.2,0.2,0.3,0.3c-0.2,0.2-0.3,0.4-0.5,0.5
	c0.4,0.3,0.7,0.7,1.1,1c0,0.1-0.3,0.2-0.3,0.3c0,0.1,0.3,0.2,0.3,0.3c0,0.1-0.2,0.2-0.3,0.3c-0.1,0.1-0.2,0.2-0.3,0.3
	c0.1,0.1,0.2,0.2,0.3,0.3c0.1,0.1,0.2,0.2,0.3,0.3c0.1,0.1,0.2,0.2,0.3,0.3c0,0-0.3,0.2-0.3,0.3c0,0,0.2,0.2,0.3,0.3
	C3.3,34.9,3.4,35,3.5,35c0.1,0.1,0.2,0.2,0.3,0.3c0,0.1-0.3,0.2-0.3,0.3c0,0.1,0.3,0.2,0.3,0.3C3.7,35.9,4,36,4,36.1
	c0,0-0.2,0.2-0.3,0.3c-0.1,0.1-0.2,0.2-0.3,0.3c0.2,0.2,0.4,0.3,0.5,0.5c0.1,0.1,0.2,0.2,0.3,0.3c0.1,0.1,0.2,0.2,0.3,0.3
	c0.1,0.1,0.2,0.2,0.3,0.3c0,0,0.3,0.2,0.3,0.3c0,0.1-0.3,0.2-0.3,0.3c0,0.1,0.2,0.2,0.3,0.3c0.1,0.1,0.2,0.2,0.3,0.3
	c0.1,0.1,0.2,0.2,0.3,0.3c0.1,0.1,0.2,0.2,0.3,0.3c-0.1,0.1-0.2,0.2-0.3,0.3c0,0-0.3,0.2-0.3,0.3c0,0.1,0.2,0.2,0.3,0.3
	C5.8,40,6,39.8,6.1,39.7c0.2,0.2,0.4,0.3,0.5,0.5c-0.1,0.1-0.2,0.2-0.3,0.3c0,0-0.3,0.2-0.3,0.3c0,0.1,0.2,0.2,0.3,0.3
	c0.3,0.3,0.5,0.5,0.8,0.8c0.1,0.1,0.2,0.2,0.3,0.3c0.1,0.1,0.2,0.2,0.3,0.3C7.8,42.3,8,42.4,8,42.5c0,0-0.3,0.2-0.3,0.3
	C7.8,42.8,8,43,8,43c0.1,0.1,0.2,0.2,0.3,0.3c0.3,0.3,0.5,0.5,0.8,0.8c0.3,0.3,0.5,0.5,0.8,0.8C10,44.9,10,45,10.1,45
	c0.1,0.1,0.2,0.2,0.3,0.3c0.1,0.1,0.2,0.2,0.3,0.3c0,0,0.2-0.3,0.3-0.3c0,0,0.2,0.2,0.3,0.3c0.1,0.1,0.2,0.2,0.3,0.3
	c0.1,0.1,0.2,0.2,0.3,0.3c0,0.1,0.2,0.2,0.3,0.3c0,0.1-0.3,0.2-0.3,0.3c0,0.1,0.2,0.2,0.3,0.3c0.1,0.1,0.2,0.2,0.3,0.3
	c0.1,0.1,0.2,0.2,0.3,0.3c0.1,0,0.2-0.3,0.3-0.3c0.1,0,0.2,0.2,0.3,0.3c0.1,0,0.2,0.2,0.3,0.3c0.1,0.1,0.2,0.2,0.3,0.3
	c0,0,0.2,0.3,0.3,0.3c0,0,0.2-0.2,0.3-0.3c0.1-0.1,0.2-0.2,0.3-0.3c0.4,0.3,0.7,0.7,1.1,1c0.3,0.3,0.5,0.5,0.8,0.8
	c0.3,0.3,0.5,0.5,0.8,0.8c0.3,0.3,0.5,0.5,0.8,0.8c0.3,0.3,0.5,0.5,0.8,0.8c0.1,0.1,0.2,0.2,0.3,0.3c0.1,0.1,0.2,0.2,0.3,0.3
	c0.1,0.1,0.2,0.2,0.3,0.3c0,0,0.2-0.3,0.3-0.3c0.1,0,0.2,0.2,0.3,0.3c0.1,0.1,0.2,0.2,0.3,0.3c0.1,0.1,0.2,0.2,0.3,0.3
	c0.3,0.3,0.5,0.5,0.8,0.8c0.5,0.5,1.1,1,1.6,1.5c-0.1,0.1-0.2,0.2-0.3,0.3c-0.1,0.1-0.2,0.2-0.3,0.3c0,0.1-0.3,0.2-0.3,0.3
	c0,0.1,0.3,0.2,0.3,0.3c0,0.1-0.3,0.2-0.3,0.3c0,0.1,0.3,0.2,0.3,0.3c0,0.1-0.2,0.2-0.3,0.3c-0.2,0.2-0.3,0.4-0.5,0.5
	c0.3,0.3,0.5,0.5,0.8,0.8c-0.1,0.1-0.2,0.2-0.3,0.3c-0.1,0.1-0.2,0.2-0.3,0.3c0,0.1-0.2,0.2-0.3,0.3c0,0.1,0.3,0.2,0.3,0.3
	c0,0.1-0.2,0.2-0.3,0.3c0.2,0.2,0.4,0.3,0.5,0.5c-0.1,0.1-0.2,0.2-0.3,0.3c-0.1,0.1-0.2,0.2-0.3,0.3c-0.1,0.1-0.2,0.2-0.3,0.3
	c0,0-0.3,0.2-0.3,0.3c0,0.1,0.2,0.2,0.3,0.3c0,0.1-0.3,0.2-0.3,0.3c0,0.1,0.2,0.2,0.3,0.3c0,0,0.3,0.2,0.3,0.3c0,0-0.2,0.2-0.3,0.3
	c-0.1,0.1-0.2,0.2-0.3,0.3c0.1,0,0.2,0.2,0.3,0.3c0,0,0.2-0.2,0.3-0.3c0,0,0.2-0.2,0.3-0.3c0.1,0,0.2,0.2,0.3,0.3
	c-0.1,0.1-0.2,0.2-0.3,0.3c0,0-0.3,0.2-0.3,0.3c0,0.1,0.2,0.2,0.3,0.3c0.4,0.3,0.7,0.7,1.1,1c0.3-0.4,0.7-0.7,1-1.1
	c-0.1-0.1-0.2-0.2-0.3-0.3c0,0-0.3-0.2-0.3-0.3c0,0,0.2-0.2,0.3-0.3c0.1-0.1,0.2-0.2,0.3-0.3c-0.1-0.1-0.2-0.2-0.3-0.3
	c0.1,0,0.2-0.3,0.3-0.3c0,0,0.3,0.2,0.3,0.3c0,0.1-0.2,0.2-0.3,0.3c0.3,0.3,0.5,0.5,0.8,0.8c0.5-0.5,1-1.1,1.5-1.6
	c0.3-0.3,0.5-0.5,0.8-0.8c0.2-0.2,0.3-0.4,0.5-0.5c0.1,0,0.2,0.3,0.3,0.3c0.1,0,0.2-0.2,0.3-0.3c0.1-0.1,0.2-0.2,0.3-0.3
	c0.1-0.1,0.2-0.2,0.3-0.3c0.1,0,0.2-0.3,0.3-0.3c0,0,0.2,0.2,0.3,0.3c0.1,0.1,0.2,0.2,0.3,0.3c0.3-0.3,0.5-0.5,0.8-0.8
	c0.1-0.1,0.2-0.2,0.3-0.3c0,0,0.2,0.3,0.3,0.3c0.1,0,0.2-0.2,0.3-0.3c0.1-0.1,0.2-0.2,0.3-0.3c0.1-0.1,0.2-0.2,0.3-0.3
	c0.1-0.1,0.2-0.2,0.3-0.3c0.2,0.2,0.4,0.3,0.5,0.5c0.1-0.1,0.2-0.2,0.3-0.3c0.1-0.1,0.2-0.2,0.3-0.3c0.1-0.1,0.2-0.2,0.3-0.3
	c0,0,0.2-0.3,0.3-0.3c0.1,0,0.2,0.2,0.3,0.3c0.1-0.1,0.2-0.2,0.3-0.3c0.1-0.1,0.2-0.2,0.3-0.3c0.1,0,0.2-0.3,0.3-0.3
	c0,0,0.2,0.3,0.3,0.3c0.1-0.1,0.2-0.2,0.3-0.3c0.2-0.2,0.3-0.4,0.5-0.5c0.3-0.3,0.5-0.5,0.8-0.8c0.1,0,0.2-0.3,0.3-0.3
	c0.1,0,0.2,0.2,0.3,0.3c0.1,0,0.2,0.3,0.3,0.3c0.1,0,0.2-0.2,0.3-0.3c0.5-0.5,1-1.1,1.5-1.6c0.3-0.3,0.5-0.5,0.8-0.8
	c0.3-0.3,0.5-0.5,0.8-0.8c0-0.1,0.2-0.2,0.3-0.3c0,0-0.2-0.2-0.3-0.3c0,0-0.3-0.2-0.3-0.3c0-0.1,0.2-0.2,0.3-0.3
	c-0.2-0.2-0.4-0.3-0.5-0.5c-0.1,0-0.1,0.2-0.2,0.2C39,50.6,38.5,50,38,49.5c0,0,0,0,0,0c0-0.1-0.1-0.1-0.2-0.1c0,0-0.1-0.1-0.1-0.1
	c0.2-0.2,0.3-0.3,0.5-0.5c-0.4-0.3-0.7-0.7-1.1-1c-0.1,0-0.2-0.2-0.3-0.3c0,0-0.2,0.2-0.3,0.3c0,0,0,0-0.1,0.1
	c-0.4-0.5-0.7-1-1.1-1.5c0,0,0.1-0.1,0.1-0.1c0-0.1-0.2-0.2-0.3-0.3c-0.1,0-0.1-0.1-0.1-0.1c-0.2-0.3-0.5-0.7-0.7-1
	c-1.7-2.5-3.3-5.1-5-7.5c-0.2-0.3-0.8-0.2-0.8,0.2c-0.1-0.1-0.2-0.1-0.2-0.2c-0.1-0.1-0.2-0.2-0.3-0.3c0,0-0.2-0.3-0.3-0.3
	c0,0-0.3,0.2-0.3,0.3c0,0.1,0.2,0.2,0.3,0.3c-0.1,0.1-0.2,0.2-0.3,0.3c-0.1,0.1-0.2,0.2-0.3,0.3c0,0.1-0.3,0.2-0.3,0.3
	c0,0,0.3,0.2,0.3,0.3c-0.1,0.1-0.2,0.2-0.3,0.3c-0.1,0.1-0.2,0.2-0.3,0.3c-0.1,0.1-0.2,0.2-0.3,0.3c0,0-0.2,0.2-0.3,0.3
	c0,0,0.2,0.2,0.3,0.3c0.1,0.1,0.2,0.2,0.3,0.3c-0.1,0.1-0.2,0.2-0.3,0.3c0,0-0.3,0.2-0.3,0.3c0,0,0.3,0.2,0.3,0.3
	c-0.1,0.1-0.2,0.2-0.3,0.3c-0.1,0.1-0.2,0.2-0.3,0.3c-0.1,0.1-0.2,0.2-0.3,0.3c-0.1,0.1-0.2,0.2-0.3,0.3c0,0,0.3,0.2,0.3,0.3
	c0,0.1,0.3,0.2,0.3,0.3c0,0.1-0.2,0.2-0.3,0.3c-0.1,0.1-0.2,0.2-0.3,0.3c0,0.1-0.3,0.2-0.3,0.3c0,0.1,0.2,0.2,0.3,0.3
	c-0.1,0-0.2,0.2-0.3,0.3c-0.1,0-0.2-0.3-0.3-0.3c0,0-0.2,0.2-0.3,0.3c0,0,0.3,0.2,0.3,0.3c0,0-0.2,0.2-0.3,0.3
	c-0.1,0.1-0.2,0.2-0.3,0.3c-0.1,0-0.2,0.2-0.3,0.3c-0.1,0-0.2-0.3-0.3-0.3c-0.1,0-0.2,0.2-0.3,0.3c-0.1,0.1-0.2,0.2-0.3,0.3
	c-0.2-0.2-0.4-0.3-0.5-0.5c-0.1,0-0.2,0.3-0.3,0.3c-0.1,0-0.2-0.2-0.3-0.3c-0.1-0.1-0.2-0.2-0.3-0.3c-0.1-0.1-0.2-0.2-0.3-0.3
	c0,0-0.2,0.3-0.3,0.3c-0.1,0-0.2-0.2-0.3-0.3c-0.1,0-0.2-0.2-0.3-0.3c-0.2-0.2-0.4-0.3-0.5-0.5c-0.1,0.1-0.2,0.2-0.3,0.3
	c0,0-0.2,0.3-0.3,0.3c-0.1,0-0.2-0.2-0.3-0.3c0.2-0.2,0.3-0.4,0.5-0.5c-0.2-0.2-0.4-0.3-0.5-0.5c-0.2-0.2-0.4-0.3-0.5-0.5
	c-0.1,0.1-0.2,0.2-0.3,0.3c0,0-0.2,0.3-0.3,0.3c-0.1,0-0.2-0.2-0.3-0.3c-0.1-0.1-0.2-0.2-0.3-0.3c-0.1-0.1-0.2-0.2-0.3-0.3
	c-0.1-0.1-0.2-0.2-0.3-0.3c0,0-0.2-0.3-0.3-0.3c-0.1,0-0.2,0.2-0.3,0.3c-0.2-0.2-0.4-0.3-0.5-0.5c-0.3-0.3-0.5-0.5-0.8-0.8
	c0-0.1,0.2-0.2,0.3-0.3c0,0-0.2-0.2-0.3-0.3c-0.1-0.1-0.2-0.2-0.3-0.3c-0.1-0.1-0.2-0.2-0.3-0.3c-0.1-0.1-0.2-0.2-0.3-0.3
	c-0.1-0.1-0.2-0.2-0.3-0.3c0-0.1-0.3-0.2-0.3-0.3c0-0.1,0.2-0.2,0.3-0.3c0-0.1,0.3-0.2,0.3-0.3c0-0.1-0.2-0.2-0.3-0.3
	c-0.4-0.3-0.7-0.7-1.1-1c-0.3-0.3-0.5-0.5-0.8-0.8c-0.1-0.1-0.2-0.2-0.3-0.3c-0.1-0.1-0.2-0.2-0.3-0.3c0-0.1-0.3-0.2-0.3-0.3
	c0-0.1,0.2-0.2,0.3-0.3c-0.2-0.2-0.4-0.3-0.5-0.5c0-0.1-0.2-0.2-0.3-0.3c0-0.1,0.3-0.2,0.3-0.3c0-0.1-0.3-0.2-0.3-0.3
	c0-0.1-0.3-0.2-0.3-0.3c0,0,0.2-0.2,0.3-0.3c0.1-0.1,0.2-0.2,0.3-0.3c-0.2-0.2-0.4-0.3-0.5-0.5c0-0.1-0.3-0.2-0.3-0.3
	c0,0,0.3-0.2,0.3-0.3c0-0.1-0.2-0.2-0.3-0.3c-0.2-0.2-0.4-0.3-0.5-0.5c-0.3-0.3-0.5-0.5-0.8-0.8c-0.4-0.3-0.7-0.7-1.1-1
	C8.9,28.9,9,28.8,9,28.7c0.1-0.1,0.2-0.2,0.3-0.3c0,0-0.3-0.2-0.3-0.3c0-0.1,0.3-0.2,0.3-0.3c0-0.1-0.2-0.2-0.3-0.3
	c-0.1-0.1-0.2-0.2-0.3-0.3c-0.1-0.1-0.2-0.2-0.3-0.3c-0.1-0.1-0.2-0.2-0.3-0.3c0,0,0.3-0.2,0.3-0.3c0-0.1-0.2-0.2-0.3-0.3
	C8.2,26.3,8,26.2,8,26.1c-0.1-0.1-0.2-0.2-0.3-0.3c-0.1-0.1-0.2-0.2-0.3-0.3c0.1-0.1,0.2-0.2,0.3-0.3c0,0,0.2-0.2,0.3-0.3
	c0,0-0.2-0.2-0.3-0.3c0,0-0.3-0.2-0.3-0.3c0-0.1,0.2-0.2,0.3-0.3c-0.1-0.1-0.2-0.2-0.3-0.3c-0.1-0.1-0.2-0.2-0.3-0.3
	c0-0.1-0.2-0.2-0.3-0.3c0-0.1,0.3-0.2,0.3-0.3c0-0.1-0.2-0.2-0.3-0.3c0-0.1-0.2-0.2-0.3-0.3c0.1-0.1,0.2-0.2,0.3-0.3
	c0,0,0.3-0.2,0.3-0.3c0-0.1-0.2-0.2-0.3-0.3c0-0.1-0.3-0.2-0.3-0.3c0-0.1,0.3-0.2,0.3-0.3c0-0.1-0.2-0.2-0.3-0.3
	c-0.1-0.1-0.2-0.2-0.3-0.3c-0.1-0.1-0.2-0.2-0.3-0.3c0.1-0.1,0.2-0.2,0.3-0.3c0,0,0.3-0.2,0.3-0.3c0-0.1-0.2-0.2-0.3-0.3
	c0-0.1,0.2-0.2,0.3-0.3c0-0.1-0.3-0.2-0.3-0.3c0-0.1,0.3-0.2,0.3-0.3c0-0.1-0.2-0.2-0.3-0.3c-0.2-0.2-0.4-0.3-0.5-0.5
	c0.3-0.3,0.5-0.5,0.8-0.8c-0.1-0.1-0.2-0.2-0.3-0.3c0,0-0.3-0.2-0.3-0.3c0,0,0.2-0.2,0.3-0.3c0.1-0.1,0.2-0.2,0.3-0.3
	c0,0-0.3-0.2-0.3-0.3c0-0.1,0.3-0.2,0.3-0.3c0-0.1-0.2-0.2-0.3-0.3c-0.1-0.1-0.2-0.2-0.3-0.3c-0.1-0.1-0.2-0.2-0.3-0.3
	c0,0,0.3-0.2,0.3-0.3c0-0.1-0.2-0.2-0.3-0.3c0.1-0.1,0.2-0.2,0.3-0.3c0,0,0.3-0.2,0.3-0.3c0-0.1-0.3-0.2-0.3-0.3
	c0-0.1,0.2-0.2,0.3-0.3c0,0-0.2-0.2-0.3-0.3c-0.1-0.1-0.2-0.2-0.3-0.3C5.7,13.1,5.8,13,5.9,13c0.1-0.1,0.2-0.2,0.3-0.3
	c0-0.1,0.2-0.2,0.3-0.3c0-0.1-0.3-0.2-0.3-0.3c0-0.1,0.2-0.2,0.3-0.3c0.2-0.2,0.3-0.4,0.5-0.5c-0.1-0.1-0.2-0.2-0.3-0.3
	c0,0-0.3-0.2-0.3-0.3c0,0,0.2-0.2,0.3-0.3c0,0,0.3-0.2,0.3-0.3c0-0.1-0.3-0.2-0.3-0.3c0-0.1,0.2-0.2,0.3-0.3c0,0,0.3-0.2,0.3-0.3
	c0,0-0.3-0.2-0.3-0.3C6.9,9.2,7.1,9.1,7.1,9C7.2,9,7.3,8.9,7.4,8.8c0.1-0.1,0.2-0.2,0.3-0.3c0,0-0.3-0.2-0.3-0.3
	c0-0.1-0.3-0.2-0.3-0.3c0-0.1,0.2-0.2,0.3-0.3c0.3-0.3,0.5-0.5,0.8-0.8c0-0.1-0.3-0.2-0.3-0.3c0-0.1,0.3-0.2,0.3-0.3
	c0-0.1-0.2-0.2-0.3-0.3C7.8,6.1,7.7,6,7.6,5.9c0.2-0.2,0.3-0.4,0.5-0.5c0-0.1,0.3-0.2,0.3-0.3c0-0.1-0.3-0.2-0.3-0.3
	c0-0.1,0.2-0.2,0.3-0.3c0.1-0.1,0.2-0.2,0.3-0.3c0-0.1,0.2-0.2,0.3-0.3C8.9,4,9.1,3.9,9.1,3.8c0,0-0.3-0.2-0.3-0.3
	c0-0.1,0.2-0.2,0.3-0.3C8.8,3,8.6,2.8,8.3,2.5C8.2,2.5,8.1,2.3,8,2.3C8,2.3,7.9,2.5,7.8,2.5c-0.1,0-0.2-0.2-0.3-0.3
	c0,0-0.1-0.1-0.1-0.1c0,0,0,0,0,0c0-0.1-0.1-0.2-0.2-0.2C6.9,1.7,6.7,1.5,6.5,1.3C6.4,1.2,6.3,1.1,6.2,1C6.1,0.9,6,0.8,5.9,0.8
	C5.8,0.7,5.8,0.6,5.7,0.5C5.6,0.4,5.5,0.3,5.4,0.3c0,0-0.2-0.3-0.3-0.3C5.1,0,4.9,0.2,4.9,0.3z M3.6,19.6c0,0.1,0,0.2,0,0.3
	c-0.1-0.1-0.2-0.2-0.2-0.2C3.4,19.7,3.5,19.6,3.6,19.6z M36.5,52.6C36.4,52.6,36.4,52.6,36.5,52.6c0-0.1,0.1-0.2,0.2-0.3
	c0,0,0.1,0.1,0.1,0.1C36.7,52.4,36.5,52.5,36.5,52.6z M12.4,40.1c0,0,0.2,0.2,0.3,0.3c0.1,0.1,0.2,0.2,0.3,0.3
	c0.1,0.1,0.2,0.2,0.3,0.3c0,0,0.3,0.2,0.3,0.3c0,0,0,0,0,0c-0.4-0.3-0.8-0.6-1.2-0.9C12.3,40.1,12.3,40.1,12.4,40.1z M13.3,41.3
	c0,0.1-0.1,0.1-0.1,0.1c0,0-0.2-0.1-0.2-0.2C13.1,41.2,13.2,41.2,13.3,41.3z M15.8,42.4c0.1,0.1,0.2,0.2,0.3,0.3
	c0.5,0.5,1.1,0.9,1.6,1.4c0,0-0.1,0-0.1,0c-0.6-0.6-1.3-1.1-1.9-1.5C15.7,42.5,15.7,42.4,15.8,42.4z M22.8,50.4
	c0.1,0,0.1-0.1,0.1-0.1c0.1,0.1,0.2,0.2,0.3,0.3C23.1,50.5,23,50.4,22.8,50.4z M29,43.4c0.2-0.2,0.3-0.3,0.5-0.5
	c0,0.3-0.1,0.6-0.1,0.9C29.3,43.6,29.2,43.5,29,43.4z M30.4,40.9c0,0.1,0,0.1,0,0.2C30.4,41.1,30.3,41,30.4,40.9
	C30.3,41,30.3,41,30.4,40.9z M30.3,40.5C30.3,40.5,30.3,40.5,30.3,40.5C30.3,40.5,30.3,40.5,30.3,40.5
	C30.3,40.5,30.3,40.5,30.3,40.5z M30.3,43.1c0,0.3-0.1,0.5-0.1,0.8c-0.1,0.1-0.2,0.2-0.3,0.3c-0.1,0-0.1-0.1-0.2-0.1
	c0-0.4,0.1-0.9,0.2-1.3C30,42.8,30.2,42.9,30.3,43.1z M23.4,51.3c-0.1-0.1-0.2-0.1-0.3-0.2c0,0,0.1-0.1,0.1-0.1c0,0,0,0,0,0
	c0.2,0,0.3,0.1,0.5,0.1C23.6,51.1,23.5,51.2,23.4,51.3z M31.3,41.6c0.2,0.3,0.5,0.7,0.7,1c-0.1-0.1-0.2-0.2-0.4-0.3
	c-0.1-0.1-0.2-0.2-0.3-0.3c0,0-0.2-0.1-0.2-0.2c0,0,0-0.1,0-0.1C31.1,41.7,31.2,41.6,31.3,41.6z M32.5,43.5c0.1,0.1,0.1,0.2,0.2,0.3
	c0,0,0,0,0,0c0,0-0.2,0.3-0.3,0.3c-0.1,0-0.2-0.2-0.3-0.3c0.1-0.1,0.2-0.2,0.3-0.3C32.4,43.6,32.5,43.5,32.5,43.5z M31.9,45.7
	c0,0,0.2,0.2,0.3,0.3c0.1,0.1,0.2,0.2,0.3,0.3c0,0,0,0,0,0c-0.2-0.2-0.5-0.3-0.7-0.3c0,0,0,0,0,0C31.8,45.9,31.8,45.7,31.9,45.7z
	 M35.8,51.2c0.1,0,0.1-0.1,0.1-0.1c0,0,0.1,0.1,0.1,0.1C36,51.2,35.9,51.2,35.8,51.2C35.8,51.2,35.8,51.2,35.8,51.2z M37.2,50.2
	C37.2,50.2,37.2,50.2,37.2,50.2c0,0-0.2,0.3-0.3,0.3c-0.1,0-0.2-0.2-0.3-0.3c0.1-0.1,0.2-0.2,0.3-0.3c0,0,0,0,0,0
	C37.1,50,37.1,50.1,37.2,50.2z M18.6,44.7c-0.1,0.1-0.2,0.1-0.2,0.2c0,0,0,0,0,0c0,0-0.1-0.1-0.1-0.1C18.4,44.7,18.5,44.7,18.6,44.7
	C18.6,44.7,18.6,44.7,18.6,44.7z M16.3,43.8c-0.1-0.1-0.2-0.1-0.2-0.2c0-0.1,0.3-0.2,0.3-0.3c0-0.1-0.2-0.2-0.3-0.3
	c-0.2-0.2-0.4-0.3-0.5-0.5c0,0,0.1-0.1,0.1-0.1c0.6,0.4,1.1,0.9,1.6,1.5C16.9,44,16.6,43.9,16.3,43.8z M5.2,16.9
	c-0.1,0.1-0.3,0.3-0.4,0.4c0-0.3,0-0.5,0-0.8C4.9,16.6,5.1,16.7,5.2,16.9z M4.8,17.8c0-0.1,0-0.2,0-0.3c0.1,0,0.2,0.1,0.2,0.2
	C5,17.7,4.9,17.7,4.8,17.8z M4.8,18.3c0-0.1,0-0.2,0-0.3c0.1,0,0.2,0.1,0.2,0.2C5,18.2,4.9,18.3,4.8,18.3z M5,19.2
	c-0.1,0.1-0.1,0.1-0.2,0.2c0-0.3,0-0.5,0-0.8C4.9,18.6,5,18.7,5,18.7c0,0,0.3,0.2,0.3,0.3C5.2,19,5,19.1,5,19.2z M5,20.8
	c0,0,0,0.1-0.1,0.1c0-0.3,0-0.5-0.1-0.8c0.1,0,0.1,0.1,0.1,0.1c0,0.1,0.3,0.2,0.3,0.3C5.3,20.6,5,20.7,5,20.8z M4.9,21.4
	c0-0.1,0-0.1,0-0.2C5,21.2,5,21.2,4.9,21.4C5,21.3,5,21.3,4.9,21.4z M6.4,27.2c0,0-0.1,0.1-0.2,0.2c0-0.1-0.1-0.2-0.1-0.3
	c0,0,0,0,0-0.1c0,0,0,0,0,0C6.2,27,6.3,27.2,6.4,27.2z M6.8,28.9c-0.2-0.4-0.3-0.7-0.4-1.1c0,0,0,0,0,0c0.1-0.1,0.2-0.2,0.3-0.3
	C6.9,27.6,7,27.8,7.2,28c-0.1,0.1-0.2,0.2-0.3,0.3c0,0.1-0.2,0.2-0.3,0.3c0,0.1,0.3,0.2,0.3,0.3C7,28.8,6.9,28.9,6.8,28.9z M7.3,30
	c-0.1-0.2-0.2-0.5-0.3-0.7c0.1,0.1,0.2,0.2,0.2,0.2c0.1,0.1,0.2,0.2,0.3,0.3C7.5,29.8,7.4,29.9,7.3,30z M8.1,30.8
	C8,30.9,7.9,31,7.8,31.1c-0.1-0.3-0.3-0.6-0.4-0.8c0,0,0-0.1,0-0.1c0.1,0,0.1,0.1,0.2,0.1C7.7,30.5,7.9,30.6,8.1,30.8z M10.2,35.4
	c0,0-0.3-0.2-0.3-0.3c0,0,0.2-0.2,0.3-0.3c0,0,0.2-0.3,0.3-0.3c0.1,0,0.2,0.2,0.3,0.3c-0.1,0.1-0.2,0.2-0.3,0.3
	C10.4,35.2,10.3,35.4,10.2,35.4z M28.2,40c0,0,0.3,0.2,0.3,0.3c0,0-0.2,0.3-0.3,0.3c0,0-0.3-0.2-0.3-0.3C27.9,40.3,28.2,40,28.2,40z
	 M28.4,38.7c0,0,0.1,0.1,0.1,0.1c0,0.2,0,0.4,0,0.5c-0.1-0.1-0.1-0.1-0.1-0.1c0,0-0.3-0.2-0.3-0.3C28.2,39,28.4,38.7,28.4,38.7z
	 M33.9,45.5c0,0-0.1-0.1-0.1-0.1c-0.3-0.3-0.5-0.5-0.8-0.8c0.1-0.1,0.1-0.1,0.2-0.2C33.4,44.8,33.6,45.1,33.9,45.5z M31.9,55.3
	c0.1,0,0.2,0,0.3,0c-0.1,0.1-0.1,0.2-0.2,0.2C32.1,55.5,32,55.4,31.9,55.3z M29,56.6c0.2-0.2,0.3-0.4,0.5-0.5
	c0.2-0.2,0.3-0.4,0.5-0.5c-0.1-0.1-0.2-0.2-0.3-0.3c0,0-0.3-0.2-0.3-0.3c0-0.1,0.2-0.2,0.3-0.3c0.1,0,0.2-0.3,0.3-0.3
	c0.1,0,0.2,0.2,0.3,0.3c0,0,0.2,0.3,0.3,0.3c0.1,0,0.2-0.2,0.3-0.3c0.3-0.3,0.7-0.7,1-1c0,0,0,0,0,0c0,0,0.1,0.1,0.1,0.1
	c-0.2,0.2-0.4,0.4-0.7,0.7c-0.3,0.3-0.2,0.7,0.2,0.8c0.1,0,0.2,0,0.3,0c-0.3,0.3-0.6,0.7-1,1c-0.1-0.1-0.2-0.2-0.3-0.3
	c0,0-0.2-0.3-0.3-0.3c-0.1,0-0.2,0.2-0.3,0.3c-0.3,0.4-0.7,0.7-1,1.1c-0.1,0.1-0.2,0.2-0.3,0.3c-0.1,0.1-0.2,0.2-0.3,0.3
	c-0.1,0.1-0.2,0.2-0.3,0.3c-0.1,0.1-0.2,0.2-0.3,0.3c0,0-0.2-0.3-0.3-0.3c-0.1,0-0.2,0.2-0.3,0.3c0.1,0.1,0.2,0.2,0.3,0.3
	c-0.3,0.4-0.7,0.7-1,1.1c-0.3-0.3-0.5-0.5-0.8-0.8c0.3-0.3,0.5-0.5,0.8-0.8c0.2,0.2,0.4,0.3,0.5,0.5c0.1-0.1,0.2-0.2,0.3-0.3
	c-0.1-0.1-0.2-0.2-0.3-0.3c0,0-0.3-0.2-0.3-0.3c0,0,0.2-0.2,0.3-0.3c0.3-0.4,0.7-0.7,1-1.1c0.1,0,0.2-0.3,0.3-0.3
	c0,0,0.2,0.2,0.3,0.3C28.8,56.4,28.9,56.5,29,56.6z M23.4,59.3c0,0,0.2,0.2,0.3,0.3c0,0,0.3,0.2,0.3,0.3c0,0-0.2,0.3-0.3,0.3
	c0,0-0.2-0.2-0.3-0.3c-0.1-0.1-0.2-0.2-0.3-0.3C23.2,59.5,23.3,59.3,23.4,59.3z M24.1,55.9c0,0,0.2-0.3,0.3-0.3
	c0.1,0,0.2,0.2,0.3,0.3c-0.1,0.1-0.2,0.2-0.3,0.3c0,0-0.2,0.3-0.3,0.3c0,0-0.3-0.2-0.3-0.3C23.8,56.1,24,56,24.1,55.9z M24.6,53.3
	c0,0,0.3,0.2,0.3,0.3c0,0.1-0.2,0.2-0.3,0.3c0,0.1,0.3,0.2,0.3,0.3c0,0-0.2,0.2-0.3,0.3c-0.1,0.1-0.2,0.2-0.3,0.3
	c0.2,0.2,0.4,0.3,0.5,0.5c-0.1,0-0.2,0.3-0.3,0.3c0,0-0.2-0.2-0.3-0.3c0,0-0.3-0.2-0.3-0.3c0-0.1,0.2-0.2,0.3-0.3
	c-0.2-0.2-0.4-0.3-0.5-0.5c0.1-0.1,0.2-0.2,0.3-0.3c0.1-0.1,0.2-0.2,0.3-0.3C24.4,53.6,24.5,53.3,24.6,53.3z M22.2,52.1
	c0.1-0.1,0.2-0.2,0.3-0.3c0.2,0.2,0.4,0.3,0.6,0.4c0,0-0.1,0.1-0.1,0.1c0,0.1,0.2,0.2,0.3,0.3c0.1,0.1,0.2,0.2,0.3,0.3
	c-0.2,0.2-0.3,0.4-0.5,0.5c-0.1-0.1-0.2-0.2-0.3-0.3c-0.1-0.1-0.2-0.2-0.3-0.3c0,0-0.2,0.3-0.3,0.3c-0.1,0-0.2-0.2-0.3-0.3
	c0-0.1,0.2-0.2,0.3-0.3c0-0.1-0.3-0.2-0.3-0.3C21.9,52.3,22.2,52.1,22.2,52.1z M20.4,50.8c0,0,0.3,0.2,0.3,0.3c0,0-0.2,0.3-0.3,0.3
	c0,0-0.3-0.2-0.3-0.3C20.1,51.1,20.3,50.8,20.4,50.8z M18,45.5c0.1,0,0.2,0,0.3,0c0,0,0.1,0,0.1-0.1c0,0.1-0.2,0.2-0.2,0.2
	C18.1,45.7,18,45.5,18,45.5z M6.9,36.8c0.2,0.2,0.4,0.4,0.6,0.6c0.2,0.5,0.4,0.9,0.7,1.4c0,0.1,0.1,0.1,0.1,0.2c0,0-0.1,0.1-0.1,0.1
	c0,0.1,0.2,0.2,0.3,0.3c0,0,0.1,0.1,0.1,0.1c0.3,0.5,0.7,0.9,1.1,1.3c-0.1,0-0.1,0.1-0.1,0.1c0,0.1,0.3,0.2,0.3,0.3
	c0,0.1-0.2,0.2-0.3,0.3c0.1,0.1,0.2,0.2,0.3,0.3c0.1,0,0.2,0.3,0.3,0.3c0.1,0,0.2-0.3,0.3-0.3c0.1,0,0.2,0.2,0.3,0.3
	c0.1,0.1,0.2,0.2,0.3,0.3c0,0-0.3,0.2-0.3,0.3c0,0.1,0.2,0.2,0.3,0.3c0.1,0.1,0.2,0.2,0.3,0.3c0.2,0.2,0.4,0.3,0.5,0.5
	c0.2,0.2,0.4,0.3,0.5,0.5c-0.2,0.2-0.3,0.4-0.5,0.5c-0.2-0.2-0.4-0.3-0.5-0.5c-0.2-0.2-0.4-0.3-0.5-0.5c-0.3-0.3-0.5-0.5-0.8-0.8
	c-0.3-0.3-0.5-0.5-0.8-0.8c0-0.1-0.3-0.2-0.3-0.3c0-0.1,0.2-0.2,0.3-0.3c0-0.1,0.3-0.2,0.3-0.3C9.3,41.1,9,41,9,40.9
	c-0.4-0.3-0.7-0.7-1.1-1c0-0.1-0.3-0.2-0.3-0.3c0-0.1,0.3-0.2,0.3-0.3c0-0.1-0.2-0.2-0.3-0.3C7.6,39,7.5,39,7.4,38.9
	c-0.1-0.1-0.2-0.2-0.3-0.3c-0.1-0.1-0.2-0.2-0.3-0.3c0-0.1-0.3-0.2-0.3-0.3c0-0.1,0.2-0.2,0.3-0.3c-0.2-0.2-0.4-0.3-0.5-0.5
	C6.5,37.1,6.7,37,6.9,36.8z M5.1,28c0.1,0,0.2,0.2,0.3,0.3c-0.2,0.2-0.3,0.4-0.5,0.5C5,28.9,5.1,29,5.2,29c-0.1,0-0.2,0.3-0.3,0.3
	c0,0-0.3-0.2-0.3-0.3c0-0.1,0.2-0.2,0.3-0.3c-0.1-0.1-0.2-0.2-0.3-0.3c0.1-0.1,0.2-0.2,0.3-0.3C4.9,28.2,5.1,28,5.1,28z M4.6,25.9
	C4.6,25.9,4.6,25.9,4.6,25.9c0.2,0.4,0.2,0.8,0.3,1.2c0,0,0,0,0,0c-0.3-0.3-0.5-0.5-0.8-0.8C4.3,26.3,4.4,26.1,4.6,25.9z M4.6,25.4
	C4.6,25.4,4.6,25.4,4.6,25.4C4.6,25.4,4.6,25.4,4.6,25.4C4.6,25.4,4.6,25.4,4.6,25.4z M4.3,24.1C4.3,24.1,4.3,24.1,4.3,24.1
	c0.1,0,0.1,0.1,0.1,0.1c0,0.2,0.1,0.4,0.1,0.6c-0.1-0.1-0.1-0.1-0.2-0.2c0,0-0.3-0.2-0.3-0.3C4,24.4,4.3,24.2,4.3,24.1z M4,22.8
	C4,22.8,4.1,22.8,4,22.8C4.1,22.8,4.1,22.9,4,22.8C4.1,22.9,4,22.9,4,22.8z M1.9,19.3C2,19.3,2,19.4,2.1,19.5c0,0,0.3,0.2,0.3,0.3
	c0,0-0.2,0.2-0.3,0.3c-0.1,0.1-0.2,0.2-0.3,0.3c0,0.1,0.3,0.2,0.3,0.3c0,0.1-0.2,0.2-0.3,0.3c0.4,0.3,0.7,0.7,1.1,1
	c-0.3,0.3-0.5,0.5-0.8,0.8c0.1,0.1,0.2,0.2,0.3,0.3c0,0,0.3,0.2,0.3,0.3c0,0.1-0.2,0.2-0.3,0.3c-0.2-0.2-0.4-0.3-0.5-0.5
	c0-0.1-0.3-0.2-0.3-0.3c0-0.1,0.3-0.2,0.3-0.3c0-0.1-0.2-0.2-0.3-0.3c-0.1-0.1-0.2-0.2-0.3-0.3c-0.1-0.1-0.2-0.2-0.3-0.3
	c0.3-0.3,0.5-0.5,0.8-0.8c0-0.1-0.3-0.2-0.3-0.3c0-0.1,0.2-0.2,0.3-0.3c-0.2-0.2-0.4-0.3-0.5-0.5C1.5,19.6,1.7,19.4,1.9,19.3z
	 M6,2.8C6,2.9,6,2.9,6,2.8c0,0.2,0,0.4-0.1,0.5c0-0.2-0.1-0.5-0.1-0.7C5.9,2.7,5.9,2.8,6,2.8z M6.3,3c0,0.2,0,0.5-0.1,0.7
	c0,0.1-0.1,0.2-0.1,0.4c0-0.1-0.1-0.3-0.1-0.4C6.1,3.5,6.1,3.3,6.3,3C6.2,3.1,6.2,3.1,6.3,3C6.3,3.1,6.3,3.1,6.3,3z M2.7,8.9
	c0,0,0.2,0.2,0.3,0.3c0,0,0.3,0.2,0.3,0.3c0,0-0.2,0.3-0.3,0.3c0,0-0.2-0.2-0.3-0.3C2.6,9.3,2.5,9.2,2.5,9.1
	C2.5,9.1,2.6,8.9,2.7,8.9z M4.7,4.7c0.1,0.1,0.2,0.1,0.2,0.2C4.9,5.2,4.8,5.5,4.7,5.8C4.5,5.9,4.4,6.1,4.2,6.2
	C4,6.1,3.9,5.9,3.7,5.7C4,5.4,4.4,5,4.7,4.7z M5.1,3.7c0,0.1,0,0.2,0,0.3c0,0,0,0,0,0C5,4,5,3.9,5,3.9C4.9,3.9,5.1,3.8,5.1,3.7z
	 M4.9,2.9C5,2.8,5.1,2.7,5.2,2.6c0,0,0.1-0.1,0.1-0.1c0,0.2-0.1,0.4-0.1,0.7c0,0.1,0,0.3-0.1,0.4C5.1,3.5,5,3.4,4.9,3.4
	c0-0.1-0.3-0.2-0.3-0.3C4.7,3.1,4.9,2.9,4.9,2.9z"/>
</svg>
