<?xml version="1.0" encoding="utf-8"?>
<!-- Generator: Adobe Illustrator 21.1.0, SVG Export Plug-In . SVG Version: 6.00 Build 0)  -->
<svg version="1.1" id="BG_xA0_Image" xmlns="http://www.w3.org/2000/svg" xmlns:xlink="http://www.w3.org/1999/xlink" x="0px"
	 y="0px" width="947.8px" height="217.4px" viewBox="0 0 947.8 217.4" style="enable-background:new 0 0 947.8 217.4;"
	 xml:space="preserve">
<style type="text/css">
	.st0{fill:#FFFFFF;}
	.st1{fill:#F2C900;}
</style>
<path class="st0" d="M332.9,56.2l-14.1,32.9h-10l-13.7-32.9v53.8l2,5.9h-19.3l1.9-5.9V28.4l-1.9-6.1h17.3l18.7,42.4l18.5-42.4h17.4
	l-2,6.1v81.6l2,5.9h-19.4l2-5.9L332.9,56.2z"/>
<path class="st0" d="M379.4,110.1l2,5.9h-19.3l1.9-5.9V28.4l-1.9-6.1h19.3l-2,6.1V110.1z"/>
<path class="st0" d="M424.4,55.8V39.6l-1.7-1.8h-13.9v62.5h13.9l1.7-1.8V84.9h-4l-2.5-15.7H440v39l-7.8,7.7h-31.1l-7.9-7.7V30
	l7.9-7.6h31.1L440,30v23.3L424.4,55.8z"/>
<path class="st0" d="M454.5,28.4l-1.9-6.1h19.3l-2,6.1v24.9h15.6V28.4l-1.8-6.1h19.6l-1.9,6.1v81.6l1.9,5.9h-19.6l1.8-5.9V69.2
	h-15.6v40.9l2,5.9h-19.3l1.9-5.9V28.4z"/>
<path class="st0" d="M561.5,22.4l2.9,17.6l-6.5-1.8h-13.8v72l2,5.9h-19.6l1.9-5.9v-72h-13.8l-6.4,1.8l2.9-17.6H561.5z"/>
<path class="st0" d="M606.1,83.3v26.7l1.8,5.9h-19.1l1.9-5.9V83.3l-19.1-54.1l-4.5-6.9h23l-2.2,3.7l10.4,34.4l10.5-34.4l-2.3-3.7h23
	l-4.5,6.9L606.1,83.3z"/>
<path class="st0" d="M686,110.1l2,5.9h-19.3l1.9-5.9V28.4l-1.9-6.1h40.9l7.9,7.6v46.9l-7.9,7.9H686V110.1z M686,38.1v31.1h13.9
	l1.8-1.8V39.9l-1.8-1.8H686z"/>
<path class="st0" d="M768.2,115.9h-40.6l1.9-6V30l-1.9-7.6h40.6l2.9,17.2l-6.4-1.8h-19.8v15.6h9.8l6.1-2v19.6l-6.1-1.9h-9.8v31.3
	h19.8l6.4-1.8L768.2,115.9z"/>
<path class="st0" d="M796,115.9h-18.9l3.1-6.2l19.2-81.9l-1.7-5.5h21.4l-1.7,5.5l19.2,81.9l3.1,6.2h-18.9l1.3-3.7L818.3,96h-19.8
	l-3.8,16.2L796,115.9z M802.1,80.4h12.5l-6.1-25.9h-0.3L802.1,80.4z"/>
<path class="st0" d="M855.4,115.9l-7.9-7.7V30l7.9-7.6h31.1l7.8,7.6v23.3l-15.6,2.5V39.6l-1.7-1.8h-14v62.5h14l1.7-1.8V82l15.6-2.5
	v28.7l-7.8,7.7H855.4z"/>
<path class="st0" d="M944.9,115.9h-40.6l1.9-6V30l-1.9-7.6h40.6l2.9,17.2l-6.4-1.8h-19.8v15.6h9.8l6.1-2v19.6l-6.1-1.9h-9.8v31.3
	h19.8l6.4-1.8L944.9,115.9z"/>
<path class="st0" d="M254,80.5"/>
<path class="st0" d="M0,0"/>
<g>
	<path class="st0" d="M126.8,217.4c-57.9,0-105.1-47.1-105.1-105.1C21.7,54.4,68.9,7.3,126.8,7.3s105.1,47.1,105.1,105.1
		C231.9,170.3,184.7,217.4,126.8,217.4z M126.8,10.8c-56,0-101.5,45.6-101.5,101.5c0,56,45.6,101.5,101.5,101.5
		s101.5-45.6,101.5-101.5C228.3,56.4,182.8,10.8,126.8,10.8z"/>
</g>
<g>
	<path class="st0" d="M184,119.3c-8.8,0-17.6,2-25.5,5.8l-30.4,14.5c-1.1,0.5-2.3,0.5-3.4,0l-29.5-14.3c-8.1-3.9-16.9-6-25.9-6H34.3
		c2,27.2,15.8,51.2,36.3,66.9c0,0,0,0,0,0c0,0,0,0,0,0c2.8,2.2,5.8,4.2,8.9,6c26.8,13.1,65.1-5.8,65.1-15.5
		c0-14.8-60.7-12.6-60.7-25.7c0-5.2,16-8.1,36.4-8.1c-14.6,2.5-12.1,8.1,20.6,11.8c28.2,3.2,40.7,8.9,40.7,22.9
		c0,4.5-2.7,9.5-6.4,14c24.9-15.2,42-41.7,44.3-72.4H184z M74.8,156.4l-31.6-27.6l27.2,3.9l-2.9-6.4l20.1,2.8l24.3,9.9
		C99,137.1,66.2,139.8,74.8,156.4z M181.5,155.3c-5-1.6-20.1-4.4-35.1-5.7c-3.9-0.3-7.6-0.7-10.3-1.2c-10.8-1.8-9.3-4.3-4-6.5
		l33.2-13.8l1.1,4.6l23.1-4.6h8.9l-18.3,16.7l13.8-2.6l-3,9.1l16.8-11.6l-9.7,26.7C195.9,160,185.4,156.5,181.5,155.3z"/>
</g>
<g>
	<path class="st1" d="M98.4,118.9l28.1,13.7l29-13.9c2.1-1,4.3-1.9,6.6-2.7c-7.6-11.4-20.5-19-35.2-19c-14.7,0-27.7,7.6-35.3,19
		C93.9,116.9,96.1,117.8,98.4,118.9z"/>
</g>
<g>
	<path class="st1" d="M154.1,98.3L192,46.2c0.3-0.4,0.2-0.9-0.2-1.2c-0.4-0.3-0.9-0.2-1.2,0.2l-37.9,52.2
		C153.2,97.7,153.7,98,154.1,98.3z"/>
</g>
<g>
	<path class="st1" d="M150.1,95.9l33.1-57.3c0.2-0.4,0.1-0.9-0.3-1.2c-0.4-0.2-0.9-0.1-1.2,0.3l-33.1,57.4
		C149.1,95.3,149.6,95.6,150.1,95.9z"/>
</g>
<g>
	<path class="st1" d="M141.4,92.2l21.3-65.5c0.1-0.5-0.1-0.9-0.6-1.1c-0.4-0.1-0.9,0.1-1.1,0.6l-21.3,65.6
		C140.3,91.9,140.9,92,141.4,92.2z"/>
</g>
<g>
	<path class="st1" d="M127.7,90V19.5c0-0.5-0.4-0.9-0.9-0.9c-0.5,0-0.9,0.4-0.9,0.9V90c0.3,0,0.6,0,0.9,0
		C127.1,90,127.4,90,127.7,90z"/>
</g>
<g>
	<path class="st1" d="M139.7,20.4c0-0.5-0.3-0.9-0.8-1c-0.5-0.1-0.9,0.3-1,0.8l-7.3,69.9c0.6,0,1.2,0.1,1.7,0.2L139.7,20.4z"/>
</g>
<g>
	<path class="st1" d="M136.9,91l14.5-68.2c0.1-0.5-0.2-0.9-0.7-1c-0.5-0.1-0.9,0.2-1,0.7l-14.5,68.3C135.8,90.8,136.3,90.9,136.9,91
		z"/>
</g>
<g>
	<path class="st1" d="M178.2,112.5l39.9-17.8c0.4-0.2,0.6-0.7,0.4-1.1c-0.2-0.4-0.7-0.6-1.1-0.4l-45.4,20.2
		C174.1,113,176.2,112.7,178.2,112.5z"/>
</g>
<g>
	<path class="st1" d="M198,112.2l21.5-7c0.5-0.1,0.7-0.6,0.6-1.1c-0.1-0.5-0.6-0.7-1.1-0.6l-26.6,8.6H198z"/>
</g>
<g>
	<path class="st1" d="M167.7,111.8l47.8-27.6c0.4-0.2,0.6-0.8,0.3-1.2c-0.2-0.4-0.8-0.6-1.2-0.3l-47.9,27.6
		C167,110.9,167.4,111.4,167.7,111.8z"/>
</g>
<g>
	<path class="st1" d="M164.8,107.9L211.5,74c0.4-0.3,0.5-0.8,0.2-1.2c-0.3-0.4-0.8-0.5-1.2-0.2l-46.8,34
		C164,107.1,164.4,107.5,164.8,107.9z"/>
</g>
<g>
	<path class="st1" d="M161.5,104.4l44.7-40.3c0.4-0.3,0.4-0.9,0.1-1.2c-0.3-0.4-0.9-0.4-1.2-0.1l-44.8,40.3
		C160.7,103.6,161.1,104,161.5,104.4z"/>
</g>
<g>
	<path class="st1" d="M158,101.1l41.7-46.4c0.3-0.4,0.3-0.9-0.1-1.2c-0.4-0.3-0.9-0.3-1.2,0.1l-41.8,46.4
		C157.1,100.4,157.5,100.8,158,101.1z"/>
</g>
<g>
	<path class="st1" d="M145.8,93.8L173.4,32c0.2-0.4,0-1-0.4-1.1c-0.4-0.2-1,0-1.1,0.4l-27.6,61.9C144.8,93.4,145.3,93.6,145.8,93.8z
		"/>
</g>
<g>
	<path class="st1" d="M88.8,107.9c0.4-0.4,0.8-0.9,1.1-1.3l-46.8-34c-0.4-0.3-0.9-0.2-1.2,0.2c-0.3,0.4-0.2,0.9,0.2,1.2L88.8,107.9z
		"/>
</g>
<g>
	<path class="st1" d="M92.1,104.4c0.4-0.4,0.8-0.8,1.3-1.2L48.5,62.8c-0.4-0.3-0.9-0.3-1.2,0.1c-0.3,0.4-0.3,0.9,0.1,1.2L92.1,104.4
		z"/>
</g>
<g>
	<path class="st1" d="M38.2,84.3l47.8,27.6c0.3-0.5,0.7-1,1-1.4L39,82.8c-0.4-0.2-0.9-0.1-1.2,0.3C37.6,83.5,37.7,84,38.2,84.3z"/>
</g>
<g>
	<path class="st1" d="M35.5,94.7l40,17.8c2.1,0.2,4.2,0.5,6.2,0.9L36.2,93.2c-0.4-0.2-1,0-1.1,0.4C34.8,94,35,94.5,35.5,94.7z"/>
</g>
<g>
	<path class="st1" d="M34.1,105.2l21.5,7h5.6l-26.6-8.6c-0.5-0.1-0.9,0.1-1.1,0.6C33.4,104.6,33.6,105.1,34.1,105.2z"/>
</g>
<g>
	<path class="st1" d="M95.6,101.1c0.4-0.4,0.9-0.7,1.4-1.1L55.2,53.6c-0.3-0.4-0.9-0.4-1.2-0.1c-0.4,0.3-0.4,0.9-0.1,1.2L95.6,101.1
		z"/>
</g>
<g>
	<path class="st1" d="M123,90.2l-7.3-69.9c-0.1-0.5-0.5-0.8-1-0.8c-0.5,0-0.8,0.5-0.8,1l7.3,69.9C121.9,90.3,122.4,90.2,123,90.2z"
		/>
</g>
<g>
	<path class="st1" d="M116.7,91c0.6-0.1,1.1-0.2,1.7-0.3l-14.5-68.3c-0.1-0.4-0.4-0.6-0.7-0.7c-0.1,0-0.2,0-0.3,0
		c-0.5,0.1-0.8,0.6-0.7,1L116.7,91z"/>
</g>
<g>
	<path class="st1" d="M112.2,92.2c0.6-0.2,1.1-0.3,1.7-0.5L92.5,26.2c-0.1-0.5-0.6-0.7-1.1-0.6c-0.5,0.1-0.7,0.6-0.6,1.1L112.2,92.2
		z"/>
</g>
<g>
	<path class="st1" d="M103.5,95.9c0.5-0.3,1-0.5,1.5-0.8L71.9,37.7c-0.2-0.4-0.8-0.6-1.2-0.3c-0.4,0.2-0.6,0.8-0.3,1.2L103.5,95.9z"
		/>
</g>
<g>
	<path class="st1" d="M99.5,98.3c0.5-0.3,1-0.6,1.5-0.9L63,45.2c-0.3-0.4-0.8-0.5-1.2-0.2c-0.4,0.3-0.5,0.8-0.2,1.2L99.5,98.3z"/>
</g>
<g>
	<path class="st1" d="M107.8,93.8c0.5-0.2,1.1-0.4,1.6-0.6L81.8,31.3c-0.2-0.4-0.7-0.6-1.1-0.4c-0.4,0.2-0.6,0.7-0.4,1.1L107.8,93.8
		z"/>
</g>
<g>
	<path class="st0" d="M279.7,192.7h5.8v-46.8h-5.8v-7.8h19.5l19.5,53.1l19.8-53.1h18.5v7.8h-5.8v46.8h5.8v7h-20v-7h6.6v-47.3
		L322,199.7h-6.9l-21.8-54.4v47.4h6.3v7h-20V192.7z"/>
	<path class="st0" d="M383.9,138.2h19.9v7h-6.3v28.7c0,3.4,0.4,6.4,1.2,8.8c0.8,2.4,1.8,4.4,3.2,5.9c1.4,1.5,3,2.6,4.9,3.3
		c1.9,0.7,3.9,1.1,6.2,1.1c2.3,0,4.5-0.3,6.4-0.9c1.9-0.6,3.6-1.7,5-3.1c1.4-1.5,2.5-3.4,3.2-5.9c0.8-2.4,1.2-5.5,1.2-9.2v-28.7
		h-6.7v-7h19.9v7h-5.5V173c0,4.4-0.6,8.4-1.8,11.8c-1.2,3.4-2.9,6.3-5.1,8.6c-2.1,2.3-4.7,4.1-7.6,5.3c-2.9,1.2-6,1.8-9.3,1.8
		c-3.2,0-6.3-0.6-9.1-1.8c-2.8-1.2-5.3-2.9-7.4-5.2c-2.1-2.3-3.7-5.1-5-8.4c-1.2-3.3-1.8-7.1-1.8-11.4v-28.5h-5.6V138.2z"/>
	<path class="st0" d="M512.2,199.9v-12.3c-1,2.1-2.3,4-3.9,5.6c-1.5,1.6-3.3,2.9-5.2,3.9c-1.9,1-3.9,1.8-6.1,2.3
		c-2.2,0.5-4.3,0.8-6.6,0.8c-4,0-7.7-0.7-11.1-2c-3.4-1.3-6.4-3.5-9.2-6.4c-2.7-2.9-4.8-6.4-6.3-10.4c-1.4-4-2.2-8.2-2.2-12.5
		c0-4.4,0.7-8.5,2.2-12.4c1.4-3.9,3.5-7.3,6.1-10.2c2.6-2.9,5.7-5.2,9.3-6.8c3.6-1.7,7.5-2.5,11.8-2.5c3.9,0,7.2,0.6,10,1.7
		c2.8,1.1,5.2,2.5,7.2,4c2,1.6,3.6,3.1,4.8,4.5h3.9v7.2h-8.7c-1.8-3.1-4.2-5.5-7.2-7.3s-6.3-2.7-10-2.6c-3.1,0-6,0.7-8.6,2
		c-2.6,1.3-4.8,3.1-6.7,5.4c-1.9,2.2-3.3,4.8-4.3,7.8c-1,2.9-1.5,6-1.5,9.3c0,3.6,0.6,6.9,1.7,10s2.6,5.6,4.3,7.5
		c1.8,1.9,3.9,3.5,6.5,4.8c2.6,1.3,5.4,1.9,8.6,1.9c5.2,0,9.5-1.3,12.8-3.8c3.3-2.5,5.7-6.5,7-11.8h-17.2v-7h26v29.5H512.2z"/>
	<path class="st0" d="M628.2,154.4c-1.8-3.1-4.2-5.5-7.2-7.3c-3-1.8-6.3-2.6-10-2.6c-3.1,0-6,0.7-8.6,2c-2.6,1.3-4.8,3.1-6.7,5.3
		s-3.3,4.8-4.3,7.8c-1,2.9-1.5,6-1.5,9.3c0,3.8,0.6,7.2,1.7,10.2c1.1,3,2.6,5.4,4.4,7.4c1.8,2,4,3.6,6.5,4.9c2.5,1.3,5.3,2,8.5,2
		c4.3,0,8-1,11.2-3.1c3.2-2.1,5.9-5.5,8.1-10.2l7.1,3.4c-1,2.9-2.8,5.7-5.2,8.5s-5.5,4.9-9.1,6.6c-3.6,1.7-7.6,2.5-12,2.5
		c-4.2,0-8.1-0.8-11.6-2.4c-3.5-1.6-6.7-3.8-9.4-6.8c-2.7-2.9-4.8-6.4-6.3-10.4c-1.4-4-2.2-8.2-2.2-12.5c0-4.4,0.7-8.5,2.2-12.4
		c1.4-3.9,3.5-7.3,6.1-10.2c2.6-2.9,5.7-5.2,9.3-6.8c3.6-1.7,7.5-2.5,11.8-2.5c3.8,0,7,0.5,9.7,1.6c2.7,1.1,5.1,2.3,7,3.8
		c1.9,1.5,3.6,3.1,4.9,4.8h4.3v7.2H628.2z"/>
	<path class="st0" d="M662.4,138.2h20v7h-6.2v47.5h21.2c0.4,0,0.9-0.1,1.3-0.3c0.4-0.2,0.8-0.5,1.2-0.8s0.6-0.7,0.9-1.1
		c0.2-0.4,0.3-0.8,0.3-1.3v-7.8h7.7v18.2h-46.4v-7h5.8v-47.5h-5.8V138.2z"/>
	<path class="st0" d="M728.3,138.2h19.9v7H742v28.7c0,3.4,0.4,6.4,1.2,8.8c0.8,2.4,1.8,4.4,3.2,5.9c1.4,1.5,3,2.6,4.9,3.3
		c1.9,0.7,3.9,1.1,6.2,1.1c2.3,0,4.5-0.3,6.4-0.9c1.9-0.6,3.6-1.7,5-3.1c1.4-1.5,2.5-3.4,3.2-5.9c0.8-2.4,1.2-5.5,1.2-9.2v-28.7
		h-6.7v-7h19.9v7H781V173c0,4.4-0.6,8.4-1.8,11.8s-2.9,6.3-5.1,8.6c-2.1,2.3-4.7,4.1-7.6,5.3c-2.9,1.2-6,1.8-9.3,1.8
		c-3.2,0-6.3-0.6-9.1-1.8c-2.8-1.2-5.3-2.9-7.4-5.2c-2.1-2.3-3.7-5.1-5-8.4c-1.2-3.3-1.8-7.1-1.8-11.4v-28.5h-5.6V138.2z"/>
	<path class="st0" d="M811.2,192.7h5.8v-47.5h-5.8v-7.1l27.7,0.1c2.5,0,4.8,0.5,7,1.4s4.1,2.2,5.7,3.8c1.6,1.6,2.9,3.5,3.8,5.7
		c0.9,2.2,1.4,4.5,1.4,7.1c0,2.6-0.7,5-2.2,7.2c-1.5,2.2-3.5,3.9-6.3,5.2c1.3,0.7,2.5,1.5,3.6,2.5c1.1,0.9,2,2,2.8,3.1
		c0.8,1.1,1.3,2.3,1.8,3.5c0.4,1.2,0.6,2.5,0.6,3.8c0,2.6-0.5,5-1.4,7.2c-0.9,2.2-2.2,4.2-3.8,5.8c-1.6,1.7-3.5,3-5.7,3.9
		c-2.2,0.9-4.5,1.4-7,1.4h-28.1V192.7z M825,145.2v20.1h14c1.3,0,2.5-0.3,3.6-0.8s2.1-1.2,2.9-2.1c0.8-0.9,1.5-1.9,2-3
		s0.7-2.3,0.7-3.5c0-1.3-0.2-2.6-0.7-3.9c-0.5-1.3-1.2-2.4-2-3.4c-0.8-1-1.8-1.8-2.9-2.4c-1.1-0.6-2.3-0.9-3.6-0.9H825z M825,172.3
		v20.4h14.3c1.3,0,2.5-0.3,3.6-1s2.1-1.5,2.9-2.5c0.8-1,1.5-2.2,2-3.6c0.5-1.3,0.7-2.7,0.7-4.1c0-1.2-0.2-2.3-0.7-3.5s-1.1-2.1-2-3
		c-0.8-0.9-1.8-1.6-2.9-2.1c-1.1-0.5-2.3-0.8-3.6-0.8H825z"/>
</g>
</svg>
